<?xml version="1.0" encoding="utf-8"?>
<!-- Generator: Adobe Illustrator 27.2.0, SVG Export Plug-In . SVG Version: 6.00 Build 0)  -->
<svg version="1.1" id="Ebene_1" xmlns="http://www.w3.org/2000/svg" xmlns:xlink="http://www.w3.org/1999/xlink" x="0px" y="0px"
	 viewBox="0 0 167 93" style="enable-background:new 0 0 167 93;" xml:space="preserve">
<style type="text/css">
	.st0{fill:#1D1D1B;}
	.st1{fill:none;}
</style>
<g>
	<g>
		<path class="st0" d="M69.3,87.3l-0.2-1.1c0.6-0.1,1.4-0.4,2.2-0.7l0.2-0.1h0.9v7.5h-1.1v-6.2C70.6,87,70,87.2,69.3,87.3z"/>
		<path class="st0" d="M74.2,91.1h1.2c0.1,0.6,0.6,0.9,1.4,0.9c1.3,0,1.8-1.1,1.7-2.6c-0.3,0.7-1,1.1-2,1.1c-1.6,0-2.5-1.1-2.5-2.5
			c0-1.4,0.9-2.6,2.6-2.6c1.6,0,3,1.2,3,3.9c0,2.5-1.1,3.8-2.9,3.8C75.4,93.1,74.4,92.4,74.2,91.1L74.2,91.1z M76.7,89.4
			c1,0,1.6-0.6,1.6-1.5c0-0.9-0.6-1.5-1.5-1.5s-1.6,0.6-1.6,1.5C75.2,88.8,75.7,89.4,76.7,89.4z"/>
		<path class="st0" d="M80.8,91.9l2.1-1.7c1-0.8,1.9-1.6,1.9-2.6c0-0.8-0.5-1.2-1.4-1.2c-1.1,0-1.5,0.7-1.5,1.5l-1.1-0.1
			c0-1.5,1.1-2.5,2.7-2.5s2.5,0.9,2.5,2.3s-1,2.3-2.7,3.5l-0.9,0.7h3.8V93h-5.5L80.8,91.9L80.8,91.9z"/>
		<path class="st0" d="M87.5,91.9l2.1-1.7c1-0.8,1.9-1.6,1.9-2.6c0-0.8-0.5-1.2-1.4-1.2c-1.1,0-1.5,0.7-1.5,1.5l-1.1-0.1
			c0-1.5,1.1-2.5,2.7-2.5s2.5,0.9,2.5,2.3s-1,2.3-2.7,3.5l-0.9,0.7H93V93h-5.5L87.5,91.9L87.5,91.9z"/>
	</g>
	<g>
		<path class="st0" d="M23.9,65.4h5.4c2.5,0,3.7,1.7,3.7,3.4c0,1.2-0.6,2.3-1.7,2.8c1.7,0.3,2.5,1.7,2.5,3c0,1.8-1.4,3.8-4.3,3.8
			h-5.6V65.4z M29,70.6c1.1,0,1.6-0.8,1.6-1.5s-0.5-1.4-1.5-1.4h-2.8v2.9L29,70.6L29,70.6z M29.6,76c1.2,0,1.8-0.8,1.8-1.7
			s-0.6-1.6-1.8-1.6h-3.3V76H29.6z"/>
		<path class="st0" d="M36,65.4h2.4V76h4.8v2.3H36L36,65.4L36,65.4z"/>
		<path class="st0" d="M49.3,65.4h3.1l4.9,12.9h-2.6l-1.2-3.2h-5.3l-1.2,3.2h-2.6L49.3,65.4L49.3,65.4z M52.7,72.8l-1.8-4.9
			l-1.8,4.9H52.7L52.7,72.8z"/>
		<path class="st0" d="M58.2,74.1c0-0.2,0-0.4,0.1-0.6h2.5c0,0.2-0.1,0.4-0.1,0.5c0,1.4,1.2,2.3,2.8,2.3c1.1,0,2.3-0.4,2.3-1.6
			c0-1-0.8-1.4-1.9-1.6l-1.4-0.3c-1.3-0.3-3.7-0.8-3.7-3.6s2.2-3.9,4.3-3.9c1.9,0,3.7,0.9,4.3,2.7l-2.2,1.1c-0.3-1-1.3-1.5-2.3-1.5
			s-1.8,0.5-1.8,1.5c0,1.2,1.3,1.5,2.3,1.7l1.3,0.3c1.7,0.4,3.3,1.1,3.3,3.5c0,2.8-2.5,4.1-4.8,4.1C60.8,78.5,58.2,76.8,58.2,74.1
			L58.2,74.1z"/>
		<path class="st0" d="M70.7,65.4h4.9c1.6,0,2.9-0.1,3.9-0.3l0.3,2.3c-1.4,0.3-3,0.3-4.2,0.3h-2.5v3h5.5V73h-5.5v3h6.5v2.3h-8.9
			V65.4L70.7,65.4z"/>
		<path class="st0" d="M82.5,65.4H88c2.9,0,4.3,1.9,4.3,3.9c0,1.5-0.9,3-2.4,3.6l3.1,5.5h-2.8l-2.7-4.9h-2.6v4.9h-2.4L82.5,65.4
			L82.5,65.4z M87.9,71.1c1.1,0,1.9-0.7,1.9-1.8s-0.8-1.7-1.9-1.7h-3v3.5L87.9,71.1L87.9,71.1z"/>
		<path class="st0" d="M94.2,71.8c0-4,2.5-6.7,6.1-6.7c2.6,0,4.6,1.4,5.3,3.5l-2.3,0.9c-0.4-1.2-1.5-2-3.1-2c-2.2,0-3.6,1.7-3.6,4.3
			c0,2.4,1.1,4.3,3.8,4.3c1.9,0,3.3-0.9,3.3-3c0-0.2,0-0.5-0.1-0.7h2.4c0,0.2,0,0.4,0,0.7c0,3.3-2.3,5.4-5.7,5.4
			C96.1,78.5,94.2,75.4,94.2,71.8z"/>
		<path class="st0" d="M111.7,65.4h3.1l4.9,12.9H117l-1.2-3.2h-5.3l-1.2,3.2h-2.6L111.7,65.4L111.7,65.4z M115,72.8l-1.8-4.9
			l-1.8,4.9H115L115,72.8z"/>
		<path class="st0" d="M121.3,65.4h4.9c1.6,0,2.9-0.1,3.9-0.3l0.3,2.3c-1.4,0.3-3,0.3-4.2,0.3h-2.5v3h5.5V73h-5.5v5.3h-2.4V65.4
			L121.3,65.4z"/>
		<path class="st0" d="M132.5,65.4h4.9c1.6,0,2.9-0.1,3.9-0.3l0.3,2.3c-1.4,0.3-3,0.3-4.2,0.3h-2.5v3h5.5V73h-5.5v3h6.5v2.3h-8.9
			V65.4L132.5,65.4z M135.3,62.3c1.6,0,2.7-0.4,3.4-1.3l1.6,1.4c-1.1,1.3-2.7,1.9-5,1.9C135.3,64.3,135.3,62.3,135.3,62.3z"/>
	</g>
	<path d="M88.9,20.2c-9.6-1.2-14.9,4-14.9,4l3.9-23.8L61,0.4l-0.9,5.3l11.2,0l-5,32.4c-1.5,11.9,3.3,20.1,13.3,20
		c7.7,0,15.7-4.6,19.2-15.7S98.2,21.4,88.9,20.2L88.9,20.2z M75.5,50.3L75.5,50.3c0,0.1,0,0.2,0,0.4c-0.1,0.3-0.6,0.4-1,0.3
		c-0.1,0-0.2-0.1-0.3-0.2l0,0c-3.1-3.5-4.1-9.5-1.8-15.2c2.3-5.7,7.3-9.5,12-10.1c0.1,0,0.2,0,0.3,0c0.4,0.1,0.7,0.6,0.5,0.9
		c0,0.1-0.1,0.2-0.2,0.3l0,0c-2.9,1.9-6.5,6-8.3,10.5C74.9,41.7,74.7,47.1,75.5,50.3 M92.5,42.2c-2.8,7-9.1,11-11.7,9.9
		c-2.2-0.9-2.7-7.6,0.1-14.5c2.8-7,7.9-11.6,10-10.8C93.5,27.8,95.2,35.2,92.5,42.2z"/>
</g>
<rect x="0.2" class="st1" width="166.5" height="93.1"/>
</svg>
